<?xml version="1.0" encoding="UTF-8"?><svg xmlns="http://www.w3.org/2000/svg" xmlns:xlink="http://www.w3.org/1999/xlink" fill-opacity="1" color-rendering="auto" color-interpolation="auto" text-rendering="auto" stroke="black" stroke-linecap="square" width="100%" height="100%" viewBox="0 0 444 677"  stroke-miterlimit="10" shape-rendering="auto" stroke-opacity="1" fill="black" stroke-dasharray="none" font-weight="normal" stroke-width="1" font-family="'Dialog'" font-style="normal" stroke-linejoin="miter" font-size="12" stroke-dashoffset="0" image-rendering="auto">
  <!--Generated by ySVG-->
  <defs id="genericDefs"/>
  <g>
    <defs id="defs1">
      <clipPath clipPathUnits="userSpaceOnUse" id="clipPath1">
        <path d="M0 0 L444 0 L444 677 L0 677 L0 0 Z"/>
      </clipPath>
      <clipPath clipPathUnits="userSpaceOnUse" id="clipPath2">
        <path d="M573 -88 L1017 -88 L1017 589 L573 589 L573 -88 Z"/>
      </clipPath>
    </defs>
    <g fill="white" fill-opacity=".5" transform="translate(-573,88)" stroke="white">
      <rect x="573" width="444" height="677" y="-88" clip-path="url(#clipPath2)" stroke="none"/>
    </g>
    <g fill="white" stroke-miterlimit="1.45" transform="matrix(1,0,0,1,-573,88)" stroke-linecap="butt" stroke="white">
      <ellipse id="init" rx="40" ry="20" clip-path="url(#clipPath2)" cx="768.32" cy="-52.6" stroke="none"/>
      <ellipse clip-path="url(#clipPath2)" fill="none" rx="40" cx="768.32" ry="20" cy="-52.6" stroke="black"/>
      <text x="736.2077" y="-48.4457" clip-path="url(#clipPath2)" fill="black" font-family="sans-serif" stroke="none" xml:space="preserve">Instruction</text>
    </g>
    <g fill="white" stroke-miterlimit="1.45" transform="matrix(1,0,0,1,-573,88)" stroke-linecap="butt" stroke="white">
      <path id="nl_parsing" d="M728.32 -17 L808.32 -17 L808.32 23 L728.32 23 Z" stroke="none" clip-path="url(#clipPath2)"/>
      <path fill="none" d="M728.32 -17 L808.32 -17 L808.32 23 L728.32 23 Z" clip-path="url(#clipPath2)" stroke="black"/>
      <text x="745.155" y="0.1699" clip-path="url(#clipPath2)" fill="black" font-family="sans-serif" stroke="none" xml:space="preserve">Parse &amp;</text>
      <text x="735.3552" y="14.1387" clip-path="url(#clipPath2)" fill="black" font-family="sans-serif" stroke="none" xml:space="preserve">Preprocess</text>
    </g>
    <g fill="white" stroke-miterlimit="1.45" transform="matrix(1,0,0,1,-573,88)" stroke-linecap="butt" stroke="white">
      <path id="ac_recognition" d="M728.32 38.6 L808.32 38.6 L808.32 78.6 L728.32 78.6 Z" stroke="none" clip-path="url(#clipPath2)"/>
      <path fill="none" d="M728.32 38.6 L808.32 38.6 L808.32 78.6 L728.32 78.6 Z" clip-path="url(#clipPath2)" stroke="black"/>
      <text x="734.3884" y="55.7699" clip-path="url(#clipPath2)" fill="black" font-family="sans-serif" stroke="none" xml:space="preserve">Actioncore </text>
      <text x="739.9929" y="69.7387" clip-path="url(#clipPath2)" fill="black" font-family="sans-serif" stroke="none" xml:space="preserve">Inference</text>
    </g>
    <g fill="white" stroke-miterlimit="1.45" transform="matrix(1,0,0,1,-573,88)" stroke-linecap="butt" stroke="white">
      <path id="senses_and_roles" d="M728.32 94.2 L808.32 94.2 L808.32 134.2 L728.32 134.2 Z" stroke="none" clip-path="url(#clipPath2)"/>
      <path fill="none" d="M728.32 94.2 L808.32 94.2 L808.32 134.2 L728.32 134.2 Z" clip-path="url(#clipPath2)" stroke="black"/>
      <text x="734.3181" y="111.3699" clip-path="url(#clipPath2)" fill="black" font-family="sans-serif" stroke="none" xml:space="preserve">Action Role</text>
      <text x="739.9929" y="125.3387" clip-path="url(#clipPath2)" fill="black" font-family="sans-serif" stroke="none" xml:space="preserve">Inference</text>
    </g>
    <g fill="white" stroke-miterlimit="1.45" transform="matrix(1,0,0,1,-573,88)" stroke-linecap="butt" stroke="white">
      <path id="executable" d="M768.32 440.96 L838.08 482.72 L768.32 524.48 L698.56 482.72 Z" stroke="none" clip-path="url(#clipPath2)"/>
      <path fill="none" d="M768.32 440.96 L838.08 482.72 L768.32 524.48 L698.56 482.72 Z" clip-path="url(#clipPath2)" stroke="black"/>
      <text x="717.1325" y="486.8743" clip-path="url(#clipPath2)" fill="black" font-family="sans-serif" stroke="none" xml:space="preserve">Executable Plan?</text>
    </g>
    <g fill="white" stroke-miterlimit="1.45" transform="matrix(1,0,0,1,-573,88)" stroke-linecap="butt" stroke="white">
      <rect id="plan_generation" x="868.08" y="464" clip-path="url(#clipPath2)" width="133.6" rx="20" ry="20" height="40" stroke="none"/>
      <rect x="868.08" y="464" clip-path="url(#clipPath2)" fill="none" width="133.6" rx="20" ry="20" height="40" stroke="black"/>
      <text x="922.1154" y="481.1699" clip-path="url(#clipPath2)" fill="black" font-family="sans-serif" stroke="none" xml:space="preserve">Plan</text>
      <text x="883.4083" y="495.1387" clip-path="url(#clipPath2)" fill="black" font-family="sans-serif" stroke="none" xml:space="preserve">Parameterization</text>
    </g>
    <g fill="white" stroke-miterlimit="1.45" transform="matrix(1,0,0,1,-573,88)" stroke-linecap="butt" stroke="white">
      <path id="achieved_by" d="M588.56 464 L668.56 464 L668.56 504 L588.56 504 Z" stroke="none" clip-path="url(#clipPath2)"/>
      <path fill="none" d="M588.56 464 L668.56 464 L668.56 504 L588.56 504 Z" clip-path="url(#clipPath2)" stroke="black"/>
      <text x="596.5356" y="481.1699" clip-path="url(#clipPath2)" fill="black" font-family="sans-serif" stroke="none" xml:space="preserve">Actioncore</text>
      <text x="593.7348" y="495.1387" clip-path="url(#clipPath2)" fill="black" font-family="sans-serif" stroke="none" xml:space="preserve">Refinement</text>
    </g>
    <g fill="white" stroke-miterlimit="1.45" transform="matrix(1,0,0,1,-573,88)" stroke-linecap="butt" stroke="white">
      <path id="roles_transformation" d="M588.56 534 L668.56 534 L668.56 574 L588.56 574 Z" stroke="none" clip-path="url(#clipPath2)"/>
      <path fill="none" d="M588.56 534 L668.56 534 L668.56 574 L588.56 574 Z" clip-path="url(#clipPath2)" stroke="black"/>
      <text x="594.558" y="551.1699" clip-path="url(#clipPath2)" fill="black" font-family="sans-serif" stroke="none" xml:space="preserve">Action Role</text>
      <text x="593.7348" y="565.1387" clip-path="url(#clipPath2)" fill="black" font-family="sans-serif" stroke="none" xml:space="preserve">Refinement</text>
    </g>
    <g stroke-linecap="butt" transform="matrix(1,0,0,1,-573,88)" stroke-miterlimit="1.45">
      <path id="library" fill="none" d="M588.56 333.7179 C590.96 322.1032 666.16 322.1032 668.56 333.7179 L668.56 368.5621 C666.16 380.1768 590.96 380.1768 588.56 368.5621 Z" clip-path="url(#clipPath2)"/>
      <path fill="none" d="M668.56 333.7179 C666.16 345.3326 590.96 345.3326 588.56 333.7179" clip-path="url(#clipPath2)"/>
      <text x="607.5805" xml:space="preserve" y="355.2943" clip-path="url(#clipPath2)" font-family="sans-serif" stroke="none">Library</text>
    </g>
    <g fill="white" stroke-miterlimit="1.45" transform="matrix(1,0,0,1,-573,88)" stroke-linecap="butt" stroke="white">
      <path id="role_look_up" d="M728.64 331.14 L808.64 331.14 L808.64 371.14 L728.64 371.14 Z" stroke="none" clip-path="url(#clipPath2)"/>
      <path fill="none" d="M728.64 331.14 L808.64 331.14 L808.64 371.14 L728.64 371.14 Z" clip-path="url(#clipPath2)" stroke="black"/>
      <text x="731.1605" y="348.3099" clip-path="url(#clipPath2)" fill="black" font-family="sans-serif" stroke="none" xml:space="preserve">Missing Role</text>
      <text x="740.3129" y="362.2787" clip-path="url(#clipPath2)" fill="black" font-family="sans-serif" stroke="none" xml:space="preserve">Inference</text>
    </g>
    <g fill="white" stroke-miterlimit="1.45" transform="matrix(1,0,0,1,-573,88)" stroke-linecap="butt" stroke="white">
      <path id="coref_resolution" d="M728.64 149.8 L808.64 149.8 L808.64 189.8 L728.64 189.8 Z" stroke="none" clip-path="url(#clipPath2)"/>
      <path fill="none" d="M728.64 149.8 L808.64 149.8 L808.64 189.8 L728.64 189.8 Z" clip-path="url(#clipPath2)" stroke="black"/>
      <text x="731.8666" y="166.9699" clip-path="url(#clipPath2)" fill="black" font-family="sans-serif" stroke="none" xml:space="preserve">Coreference</text>
      <text x="737.0199" y="180.9387" clip-path="url(#clipPath2)" fill="black" font-family="sans-serif" stroke="none" xml:space="preserve">Resolution</text>
    </g>
    <g fill="white" stroke-miterlimit="1.45" transform="matrix(1,0,0,1,-573,88)" stroke-linecap="butt" stroke="white">
      <path id="missingroles" d="M768.64 219.8 L838.4 261.56 L768.64 303.32 L698.88 261.56 Z" stroke="none" clip-path="url(#clipPath2)"/>
      <path fill="none" d="M768.64 219.8 L838.4 261.56 L768.64 303.32 L698.88 261.56 Z" clip-path="url(#clipPath2)" stroke="black"/>
      <text x="724.182" y="265.7143" clip-path="url(#clipPath2)" fill="black" font-family="sans-serif" stroke="none" xml:space="preserve">Roles missing?</text>
    </g>
    <g stroke-linecap="butt" transform="matrix(1,0,0,1,-573,88)" stroke-miterlimit="1.45">
      <circle fill="none" r="5.5" clip-path="url(#clipPath2)" cx="768.64" cy="406.64"/>
    </g>
    <g stroke-linecap="butt" transform="matrix(1,0,0,1,-573,88)" stroke-miterlimit="1.45">
      <path fill="none" d="M768.32 -32.5916 L768.32 -24.9855" clip-path="url(#clipPath2)"/>
    </g>
    <g stroke-linecap="butt" transform="matrix(1,0,0,1,-573,88)" stroke-miterlimit="1.45">
      <path d="M768.32 -16.9855 L773.32 -28.9855 L768.32 -25.9855 L763.32 -28.9855 Z" stroke="none" clip-path="url(#clipPath2)"/>
      <path fill="none" d="M768.32 23.0084 L768.32 30.6145" clip-path="url(#clipPath2)"/>
      <path d="M768.32 38.6145 L773.32 26.6145 L768.32 29.6145 L763.32 26.6145 Z" clip-path="url(#clipPath2)" stroke="none"/>
      <path fill="none" d="M768.32 78.6084 L768.32 86.2145" clip-path="url(#clipPath2)"/>
      <path d="M768.32 94.2145 L773.32 82.2145 L768.32 85.2145 L763.32 82.2145 Z" clip-path="url(#clipPath2)" stroke="none"/>
      <path fill="none" d="M837.1642 483.2491 L860.1301 483.4256" clip-path="url(#clipPath2)"/>
      <path d="M868.1298 483.487 L856.1686 478.395 L859.1301 483.4179 L856.0917 488.3947 Z" clip-path="url(#clipPath2)" stroke="none"/>
      <text x="840.4281" xml:space="preserve" y="463.1266" clip-path="url(#clipPath2)" font-family="sans-serif" stroke="none">Yes</text>
      <path fill="none" d="M699.6342 483.3491 L676.5736 483.5603" clip-path="url(#clipPath2)"/>
      <path d="M668.5739 483.6335 L680.6192 488.5234 L677.5735 483.5511 L680.5276 478.5238 Z" clip-path="url(#clipPath2)" stroke="none"/>
      <text x="675.2416" xml:space="preserve" y="457.6508" clip-path="url(#clipPath2)" font-family="sans-serif" stroke="none">No</text>
      <path fill="none" d="M628.56 503.9951 L628.56 526.0273" clip-path="url(#clipPath2)"/>
      <path d="M628.56 534.0273 L633.56 522.0273 L628.56 525.0273 L623.56 522.0273 Z" clip-path="url(#clipPath2)" stroke="none"/>
      <path fill="none" d="M668.5605 554 L768 554 L768.097 532.3811" clip-path="url(#clipPath2)"/>
      <path d="M768.133 524.3812 L763.0791 536.3586 L768.0925 533.3811 L773.079 536.4035 Z" clip-path="url(#clipPath2)" stroke="none"/>
      <path fill="none" d="M628.56 463.9867 L628.56 377.2854" clip-path="url(#clipPath2)"/>
      <path fill="none" d="M728.6611 351.14 L668.5907 351.14" clip-path="url(#clipPath2)"/>
      <path fill="none" d="M768.4352 134.2084 L768.4789 141.8146" clip-path="url(#clipPath2)"/>
      <path d="M768.525 149.8145 L773.4559 137.7859 L768.4732 140.8146 L763.456 137.8434 Z" clip-path="url(#clipPath2)" stroke="none"/>
      <path fill="none" d="M768.64 189.8277 L768.64 211.7745" clip-path="url(#clipPath2)"/>
      <path d="M768.64 219.7745 L773.64 207.7745 L768.64 210.7745 L763.64 207.7745 Z" clip-path="url(#clipPath2)" stroke="none"/>
      <path fill="none" d="M768.64 303.3319 L768.64 323.111" clip-path="url(#clipPath2)"/>
      <path d="M768.64 331.111 L773.64 319.111 L768.64 322.111 L763.64 319.111 Z" clip-path="url(#clipPath2)" stroke="none"/>
      <text x="728.1576" xml:space="preserve" y="321.3843" clip-path="url(#clipPath2)" font-family="sans-serif" stroke="none">Yes</text>
      <path fill="none" d="M768.64 374.8576 L768.64 393.1464" clip-path="url(#clipPath2)"/>
      <path d="M768.64 401.1464 L773.64 389.1464 L768.64 392.1464 L763.64 389.1464 Z" clip-path="url(#clipPath2)" stroke="none"/>
      <path fill="none" d="M838.4072 261.56 L934.88 261.56 L934.88 406.64 L782.1191 406.64" clip-path="url(#clipPath2)"/>
      <path d="M774.1191 406.64 L786.1191 411.64 L783.1191 406.64 L786.1191 401.64 Z" clip-path="url(#clipPath2)" stroke="none"/>
      <text x="845.4" xml:space="preserve" y="235.7143" clip-path="url(#clipPath2)" font-family="sans-serif" stroke="none">No</text>
      <path fill="none" d="M768.6167 412.1751 L768.5288 433.0752" clip-path="url(#clipPath2)"/>
      <path d="M768.4952 441.0751 L773.5456 429.0962 L768.533 432.0752 L763.5457 429.0542 Z" clip-path="url(#clipPath2)" stroke="none"/>
    </g>
  </g>
</svg>
