<?xml version="1.0" encoding="UTF-8"?><svg xmlns="http://www.w3.org/2000/svg" xmlns:xlink="http://www.w3.org/1999/xlink" fill-opacity="1" color-rendering="auto" color-interpolation="auto" stroke="black" text-rendering="auto" stroke-linecap="square" width="444" stroke-miterlimit="10" stroke-opacity="1" shape-rendering="auto" fill="black" stroke-dasharray="none" font-weight="normal" stroke-width="1" height="503" font-family="'Dialog'" font-style="normal" stroke-linejoin="miter" font-size="12" stroke-dashoffset="0" image-rendering="auto">
  <!--Generated by ySVG-->
  <defs id="genericDefs"/>
  <g>
    <defs id="defs1">
      <clipPath clipPathUnits="userSpaceOnUse" id="clipPath1">
        <path d="M0 0 L444 0 L444 503 L0 503 L0 0 Z"/>
      </clipPath>
      <clipPath clipPathUnits="userSpaceOnUse" id="clipPath2">
        <path d="M573 121 L1017 121 L1017 624 L573 624 L573 121 Z"/>
      </clipPath>
    </defs>
    <g fill="white" transform="translate(-573,-121)" stroke="white">
      <rect x="573" width="444" height="503" y="121" clip-path="url(#clipPath2)" stroke="none"/>
    </g>
    <g fill="white" stroke-miterlimit="1.45" transform="matrix(1,0,0,1,-573,-121)" stroke-linecap="butt" stroke="white">
      <ellipse id="init" rx="40" ry="20" clip-path="url(#clipPath2)" cx="768" cy="156" stroke="none"/>
      <ellipse clip-path="url(#clipPath2)" fill="none" rx="40" cx="768" ry="20" cy="156" stroke="black"/>
      <text x="735.8877" y="160.1543" clip-path="url(#clipPath2)" fill="black" font-family="sans-serif" stroke="none" xml:space="preserve">Instruction</text>
    </g>
    <g fill="white" stroke-miterlimit="1.45" transform="matrix(1,0,0,1,-573,-121)" stroke-linecap="butt" stroke="white">
      <path id="nl_parsing" d="M728 206 L808 206 L808 246 L728 246 Z" clip-path="url(#clipPath2)" stroke="none"/>
      <path fill="white" d="M728 206 L808 206 L808 246 L728 246 Z" clip-path="url(#clipPath2)" stroke="black"/>
      <text x="745.834" y="230.1543" clip-path="url(#clipPath2)" fill="black" font-family="sans-serif" stroke="none" xml:space="preserve">Parsing</text>
    </g>
    <g fill="white" stroke-miterlimit="1.45" transform="matrix(1,0,0,1,-573,-121)" stroke-linecap="butt" stroke="white">
      <path id="ac_recognition" d="M728 276 L808 276 L808 316 L728 316 Z" clip-path="url(#clipPath2)" stroke="none"/>
      <path fill="none" d="M728 276 L808 276 L808 316 L728 316 Z" clip-path="url(#clipPath2)" stroke="black"/>
      <text x="734.0684" y="293.1699" clip-path="url(#clipPath2)" fill="black" font-family="sans-serif" stroke="none" xml:space="preserve">Actioncore </text>
      <text x="739.6729" y="307.1387" clip-path="url(#clipPath2)" fill="black" font-family="sans-serif" stroke="none" xml:space="preserve">Inference</text>
    </g>
    <g fill="white" stroke-miterlimit="1.45" transform="matrix(1,0,0,1,-573,-121)" stroke-linecap="butt" stroke="white">
      <path id="senses_and_roles" d="M728 352 L808 352 L808 392 L728 392 Z" clip-path="url(#clipPath2)" stroke="none"/>
      <path fill="none" d="M728 352 L808 352 L808 392 L728 392 Z" clip-path="url(#clipPath2)" stroke="black"/>
      <text x="733.998" y="369.1699" clip-path="url(#clipPath2)" fill="black" font-family="sans-serif" stroke="none" xml:space="preserve">Action Role</text>
      <text x="739.6729" y="383.1387" clip-path="url(#clipPath2)" fill="black" font-family="sans-serif" stroke="none" xml:space="preserve">Inference</text>
    </g>
    <g fill="white" stroke-miterlimit="1.45" transform="matrix(1,0,0,1,-573,-121)" stroke-linecap="butt" stroke="white">
      <path id="executable" d="M768.32 440.96 L838.08 482.72 L768.32 524.48 L698.56 482.72 Z" clip-path="url(#clipPath2)" stroke="none"/>
      <path fill="none" d="M768.32 440.96 L838.08 482.72 L768.32 524.48 L698.56 482.72 Z" clip-path="url(#clipPath2)" stroke="black"/>
      <text x="717.1325" y="486.8743" clip-path="url(#clipPath2)" fill="black" font-family="sans-serif" stroke="none" xml:space="preserve">Executable Plan?</text>
    </g>
    <g fill="white" stroke-miterlimit="1.45" transform="matrix(1,0,0,1,-573,-121)" stroke-linecap="butt" stroke="white">
      <rect id="finished" x="868.08" y="464" clip-path="url(#clipPath2)" width="133.6" rx="20" ry="20" height="40" stroke="none"/>
      <rect x="868.08" y="464" clip-path="url(#clipPath2)" fill="none" width="133.6" rx="20" ry="20" height="40" stroke="black"/>
      <text x="922.1154" y="481.1699" clip-path="url(#clipPath2)" fill="black" font-family="sans-serif" stroke="none" xml:space="preserve">Plan</text>
      <text x="883.4083" y="495.1387" clip-path="url(#clipPath2)" fill="black" font-family="sans-serif" stroke="none" xml:space="preserve">Parameterization</text>
    </g>
    <g fill="white" stroke-miterlimit="1.45" transform="matrix(1,0,0,1,-573,-121)" stroke-linecap="butt" stroke="white">
      <path id="achieved_by" d="M588.56 464 L668.56 464 L668.56 504 L588.56 504 Z" clip-path="url(#clipPath2)" stroke="none"/>
      <path fill="none" d="M588.56 464 L668.56 464 L668.56 504 L588.56 504 Z" clip-path="url(#clipPath2)" stroke="black"/>
      <text x="596.5356" y="481.1699" clip-path="url(#clipPath2)" fill="black" font-family="sans-serif" stroke="none" xml:space="preserve">Actioncore</text>
      <text x="600.2328" y="495.1387" clip-path="url(#clipPath2)" fill="black" font-family="sans-serif" stroke="none" xml:space="preserve">Inference</text>
    </g>
    <g fill="white" stroke-miterlimit="1.45" transform="matrix(1,0,0,1,-573,-121)" stroke-linecap="butt" stroke="white">
      <path id="roles_transformation" d="M588.56 569 L668.56 569 L668.56 609 L588.56 609 Z" clip-path="url(#clipPath2)" stroke="none"/>
      <path fill="none" d="M588.56 569 L668.56 569 L668.56 609 L588.56 609 Z" clip-path="url(#clipPath2)" stroke="black"/>
      <text x="594.558" y="586.1699" clip-path="url(#clipPath2)" fill="black" font-family="sans-serif" stroke="none" xml:space="preserve">Action Role</text>
      <text x="600.2328" y="600.1387" clip-path="url(#clipPath2)" fill="black" font-family="sans-serif" stroke="none" xml:space="preserve">Inference</text>
    </g>
    <g stroke-linecap="butt" transform="matrix(1,0,0,1,-573,-121)" stroke-miterlimit="1.45">
      <path fill="none" d="M768 175.9951 L768 198.0273" clip-path="url(#clipPath2)"/>
    </g>
    <g stroke-linecap="butt" transform="matrix(1,0,0,1,-573,-121)" stroke-miterlimit="1.45">
      <path d="M768 206.0273 L773 194.0273 L768 197.0273 L763 194.0273 Z" clip-path="url(#clipPath2)" stroke="none"/>
      <path fill="none" d="M768 245.9951 L768 268.0273" clip-path="url(#clipPath2)"/>
      <path d="M768 276.0273 L773 264.0273 L768 267.0273 L763 264.0273 Z" clip-path="url(#clipPath2)" stroke="none"/>
      <path fill="none" d="M768 316.002 L768 344.0124" clip-path="url(#clipPath2)"/>
      <path d="M768 352.0124 L773 340.0124 L768 343.0124 L763 340.0124 Z" clip-path="url(#clipPath2)" stroke="none"/>
      <path fill="none" d="M768.0577 391.9761 L768.1764 433.0257" clip-path="url(#clipPath2)"/>
      <path d="M768.1995 441.0257 L773.1648 429.0113 L768.1735 432.0257 L763.1649 429.0402 Z" clip-path="url(#clipPath2)" stroke="none"/>
      <path fill="none" d="M837.1642 483.2491 L860.1301 483.4256" clip-path="url(#clipPath2)"/>
      <path d="M868.1298 483.487 L856.1686 478.395 L859.1301 483.4179 L856.0917 488.3947 Z" clip-path="url(#clipPath2)" stroke="none"/>
      <text x="842.8281" xml:space="preserve" y="457.5266" font-family="sans-serif" clip-path="url(#clipPath2)" stroke="none">Yes</text>
      <path fill="none" d="M699.6342 483.3491 L676.5736 483.5603" clip-path="url(#clipPath2)"/>
      <path d="M668.5739 483.6335 L680.6192 488.5234 L677.5735 483.5511 L680.5276 478.5238 Z" clip-path="url(#clipPath2)" stroke="none"/>
      <text x="675.2416" xml:space="preserve" y="457.6508" font-family="sans-serif" clip-path="url(#clipPath2)" stroke="none">No</text>
      <path fill="none" d="M628.56 504.0208 L628.56 560.9585" clip-path="url(#clipPath2)"/>
      <path d="M628.56 568.9585 L633.56 556.9585 L628.56 559.9585 L623.56 556.9585 Z" clip-path="url(#clipPath2)" stroke="none"/>
      <path fill="none" d="M668.5605 589 L768 589 L768.1703 532.4172" clip-path="url(#clipPath2)"/>
      <path d="M768.1945 524.4173 L763.1583 536.4022 L768.1674 533.4172 L773.1583 536.4323 Z" clip-path="url(#clipPath2)" stroke="none"/>
    </g>
  </g>
</svg>
